<?xml version="1.0" encoding="utf-8" ?>
<svg baseProfile="tiny" height="437px" version="1.2" width="614px" xmlns="http://www.w3.org/2000/svg" xmlns:ev="http://www.w3.org/2001/xml-events" xmlns:xlink="http://www.w3.org/1999/xlink"><defs /><path d="M 535,343 L 535,424 L 536,425 L 537,424 L 539,424 L 540,425 L 541,425 L 542,424 L 543,424 L 544,425 L 545,424 L 546,425 L 547,424 L 548,425 L 549,425 L 549,424 L 550,423 L 550,375 L 551,374 L 552,375 L 552,377 L 553,378 L 553,379 L 554,380 L 554,382 L 555,383 L 555,385 L 556,386 L 556,387 L 557,388 L 557,390 L 558,391 L 558,393 L 559,394 L 559,395 L 560,396 L 560,398 L 561,399 L 561,400 L 562,401 L 562,403 L 563,404 L 563,406 L 564,407 L 564,408 L 565,409 L 565,410 L 566,411 L 570,411 L 571,412 L 570,411 L 571,410 L 572,410 L 572,409 L 573,408 L 573,406 L 574,405 L 574,404 L 575,403 L 575,401 L 576,400 L 576,398 L 577,397 L 577,395 L 578,394 L 578,393 L 579,392 L 579,390 L 580,389 L 580,387 L 581,386 L 581,385 L 582,384 L 582,382 L 583,381 L 583,379 L 584,378 L 584,376 L 585,375 L 586,376 L 586,423 L 585,424 L 586,424 L 587,425 L 586,426 L 587,425 L 589,425 L 590,424 L 592,424 L 593,425 L 594,425 L 595,424 L 596,425 L 597,424 L 601,424 L 601,343 L 583,343 L 583,344 L 582,345 L 582,347 L 581,348 L 581,349 L 580,350 L 580,352 L 579,353 L 579,354 L 578,355 L 577,354 L 577,353 L 577,354 L 578,355 L 578,357 L 577,358 L 577,360 L 576,361 L 576,362 L 575,363 L 575,365 L 574,366 L 574,367 L 573,368 L 573,370 L 572,371 L 572,373 L 571,374 L 571,375 L 570,376 L 570,378 L 569,379 L 568,379 L 567,378 L 567,376 L 566,375 L 566,373 L 565,372 L 565,370 L 564,369 L 564,368 L 563,367 L 563,365 L 562,364 L 562,362 L 561,361 L 561,360 L 560,359 L 560,357 L 559,356 L 559,355 L 558,354 L 558,352 L 557,351 L 557,350 L 556,349 L 556,348 L 555,347 L 555,345 L 554,344 L 554,343 Z" fill="currentColor" /><path d="M 472,343 L 472,424 L 473,424 L 474,425 L 478,425 L 479,424 L 480,425 L 481,424 L 482,425 L 483,424 L 484,425 L 487,425 L 488,424 L 488,395 L 489,394 L 497,394 L 498,395 L 497,396 L 496,396 L 497,397 L 497,396 L 498,395 L 499,396 L 499,397 L 500,398 L 500,399 L 501,400 L 501,402 L 500,403 L 499,402 L 500,403 L 500,404 L 500,403 L 501,402 L 502,403 L 502,404 L 503,405 L 503,407 L 502,408 L 502,409 L 502,408 L 503,407 L 504,408 L 504,409 L 505,410 L 505,412 L 506,413 L 506,414 L 507,415 L 507,416 L 508,417 L 508,419 L 509,420 L 509,421 L 510,422 L 510,423 L 512,425 L 518,425 L 519,426 L 520,425 L 522,425 L 523,426 L 524,425 L 525,425 L 526,424 L 528,424 L 528,423 L 526,421 L 526,419 L 525,418 L 525,417 L 524,416 L 524,415 L 523,414 L 523,412 L 522,411 L 522,410 L 521,409 L 521,408 L 522,407 L 521,407 L 520,406 L 520,405 L 519,404 L 519,402 L 520,401 L 520,400 L 519,399 L 519,398 L 519,400 L 518,401 L 517,400 L 517,399 L 516,398 L 516,396 L 515,395 L 515,394 L 514,393 L 514,392 L 512,390 L 513,389 L 514,389 L 516,387 L 517,387 L 518,386 L 518,385 L 521,382 L 521,380 L 522,379 L 522,378 L 523,377 L 523,375 L 524,374 L 524,363 L 523,362 L 523,358 L 522,357 L 522,356 L 521,355 L 521,354 L 519,352 L 520,351 L 519,351 L 515,347 L 514,347 L 513,346 L 512,346 L 511,345 L 510,345 L 509,344 L 510,343 L 511,343 L 510,343 L 509,344 L 507,344 L 506,343 Z M 488,358 L 489,357 L 500,357 L 501,358 L 502,358 L 503,359 L 504,359 L 505,360 L 504,361 L 505,360 L 507,362 L 507,364 L 508,365 L 508,371 L 507,372 L 507,374 L 506,375 L 505,375 L 505,377 L 504,378 L 503,378 L 502,379 L 500,379 L 499,378 L 500,379 L 499,380 L 489,380 L 488,379 Z" fill="currentColor" /><path d="M 341,343 L 341,358 L 358,358 L 359,359 L 359,367 L 357,369 L 357,372 L 357,369 L 358,368 L 359,369 L 359,375 L 357,377 L 358,376 L 359,377 L 359,383 L 358,384 L 357,384 L 357,385 L 358,384 L 359,385 L 359,391 L 357,393 L 358,392 L 359,393 L 359,399 L 358,400 L 357,399 L 358,400 L 357,401 L 357,405 L 357,401 L 358,400 L 359,401 L 359,407 L 358,408 L 359,409 L 359,423 L 358,424 L 358,425 L 359,424 L 360,425 L 362,425 L 363,424 L 364,425 L 371,425 L 372,424 L 373,424 L 374,425 L 373,426 L 373,427 L 374,427 L 375,426 L 374,425 L 375,424 L 376,424 L 375,423 L 375,359 L 376,358 L 392,358 L 393,359 L 394,359 L 395,358 L 395,343 Z" fill="currentColor" /><path d="M 199,342 L 198,343 L 196,343 L 196,344 L 195,345 L 195,349 L 194,350 L 194,353 L 193,354 L 193,359 L 192,360 L 192,364 L 191,365 L 191,369 L 190,370 L 190,374 L 189,375 L 189,379 L 188,380 L 188,384 L 187,385 L 187,389 L 186,390 L 186,393 L 185,394 L 184,393 L 184,391 L 183,390 L 183,386 L 184,385 L 185,386 L 184,385 L 183,386 L 182,385 L 182,382 L 183,381 L 182,382 L 181,381 L 181,377 L 182,376 L 183,377 L 184,377 L 182,375 L 183,374 L 182,373 L 182,372 L 181,371 L 181,370 L 182,369 L 182,368 L 181,368 L 181,371 L 180,372 L 179,371 L 179,368 L 178,367 L 178,364 L 177,363 L 177,359 L 178,358 L 177,359 L 176,358 L 176,355 L 175,354 L 175,351 L 174,350 L 174,346 L 173,345 L 173,343 L 159,343 L 159,345 L 158,346 L 158,349 L 157,350 L 157,354 L 156,355 L 156,358 L 155,359 L 155,362 L 154,363 L 154,367 L 153,368 L 153,371 L 152,372 L 152,376 L 151,377 L 151,380 L 150,381 L 150,384 L 149,385 L 148,384 L 148,383 L 146,383 L 145,384 L 144,383 L 144,382 L 143,381 L 143,376 L 142,375 L 142,372 L 141,371 L 141,366 L 140,365 L 140,362 L 139,361 L 139,357 L 138,356 L 138,352 L 137,351 L 137,347 L 136,346 L 136,343 L 119,343 L 119,348 L 120,349 L 120,352 L 121,353 L 121,356 L 122,357 L 122,360 L 123,361 L 123,364 L 122,365 L 121,364 L 122,365 L 122,367 L 123,368 L 124,368 L 125,369 L 125,372 L 126,373 L 126,375 L 125,376 L 124,376 L 125,377 L 125,379 L 125,377 L 126,376 L 127,377 L 127,379 L 128,380 L 128,383 L 129,384 L 129,387 L 130,388 L 130,391 L 131,392 L 131,395 L 132,396 L 132,399 L 133,400 L 133,402 L 132,403 L 131,402 L 131,403 L 132,404 L 133,403 L 134,404 L 134,407 L 135,408 L 135,411 L 136,412 L 136,415 L 137,416 L 137,418 L 138,419 L 138,423 L 137,424 L 139,424 L 140,425 L 142,425 L 143,424 L 144,424 L 145,425 L 146,425 L 147,424 L 148,425 L 150,425 L 151,424 L 152,425 L 153,424 L 154,424 L 154,423 L 155,422 L 155,418 L 156,417 L 156,414 L 157,413 L 157,410 L 158,409 L 158,406 L 159,405 L 159,402 L 160,401 L 160,398 L 161,397 L 161,393 L 162,392 L 162,389 L 163,388 L 163,384 L 164,383 L 164,379 L 166,377 L 167,378 L 167,383 L 166,384 L 166,385 L 165,386 L 166,385 L 166,384 L 167,383 L 168,384 L 168,386 L 169,387 L 169,391 L 170,392 L 170,396 L 171,397 L 171,400 L 170,401 L 171,400 L 172,401 L 172,405 L 170,407 L 171,407 L 171,406 L 172,405 L 173,406 L 173,409 L 174,410 L 174,413 L 175,414 L 175,417 L 176,418 L 176,422 L 177,423 L 177,424 L 178,425 L 185,425 L 186,424 L 190,424 L 191,425 L 192,424 L 193,424 L 193,421 L 194,420 L 194,417 L 195,416 L 195,413 L 196,412 L 196,409 L 197,408 L 197,405 L 198,404 L 198,401 L 199,400 L 199,397 L 200,396 L 200,393 L 201,392 L 201,389 L 202,388 L 202,384 L 203,383 L 203,381 L 204,380 L 205,381 L 205,382 L 205,381 L 206,380 L 206,379 L 206,380 L 205,381 L 204,380 L 204,377 L 205,376 L 205,374 L 206,373 L 207,374 L 206,373 L 206,370 L 207,369 L 207,366 L 208,365 L 208,362 L 209,361 L 209,358 L 210,357 L 210,354 L 211,353 L 211,350 L 212,349 L 212,346 L 213,345 L 213,343 L 200,343 Z" fill="currentColor" /><path d="M 99,342 L 98,343 L 86,343 L 86,344 L 85,345 L 85,347 L 84,348 L 84,350 L 83,351 L 82,350 L 81,351 L 81,354 L 82,355 L 82,357 L 81,358 L 81,361 L 80,362 L 80,364 L 79,365 L 79,367 L 78,368 L 78,370 L 77,371 L 77,374 L 76,375 L 76,377 L 75,378 L 75,379 L 74,380 L 73,380 L 73,382 L 74,383 L 74,384 L 73,385 L 73,387 L 72,388 L 72,390 L 71,391 L 71,394 L 70,395 L 70,397 L 69,398 L 69,400 L 68,401 L 68,403 L 67,404 L 67,407 L 66,408 L 66,410 L 64,412 L 65,413 L 64,414 L 64,416 L 63,417 L 63,420 L 62,421 L 62,422 L 61,423 L 61,424 L 63,424 L 64,425 L 66,425 L 67,424 L 68,425 L 77,425 L 77,424 L 78,423 L 78,421 L 79,420 L 79,417 L 80,416 L 80,413 L 81,412 L 81,410 L 82,409 L 82,408 L 83,407 L 87,407 L 88,406 L 89,407 L 91,407 L 92,406 L 96,406 L 97,407 L 98,407 L 99,406 L 100,407 L 101,406 L 102,407 L 103,406 L 105,408 L 105,410 L 106,411 L 106,415 L 107,416 L 107,419 L 108,420 L 108,422 L 109,423 L 109,424 L 112,424 L 113,425 L 112,426 L 114,424 L 115,424 L 116,425 L 117,425 L 118,424 L 123,424 L 124,425 L 125,424 L 125,421 L 124,420 L 124,418 L 123,417 L 123,415 L 122,414 L 122,411 L 121,410 L 121,407 L 120,406 L 120,404 L 119,403 L 119,401 L 118,400 L 118,398 L 117,397 L 117,394 L 116,393 L 116,391 L 115,390 L 115,388 L 114,387 L 114,384 L 113,383 L 113,381 L 112,380 L 112,378 L 111,377 L 111,375 L 110,374 L 110,371 L 111,370 L 112,370 L 111,370 L 110,371 L 109,370 L 109,368 L 108,367 L 108,364 L 107,363 L 107,361 L 106,360 L 106,358 L 105,357 L 105,355 L 104,354 L 104,351 L 103,350 L 103,347 L 104,346 L 104,344 L 104,346 L 103,347 L 102,346 L 102,344 L 100,342 Z M 94,366 L 95,367 L 95,371 L 94,372 L 95,371 L 96,372 L 96,375 L 97,376 L 97,379 L 98,380 L 98,383 L 99,384 L 99,388 L 98,389 L 99,388 L 100,389 L 100,391 L 99,392 L 98,392 L 97,391 L 97,392 L 96,393 L 94,391 L 93,392 L 91,392 L 90,391 L 88,393 L 87,392 L 87,389 L 88,388 L 88,384 L 89,383 L 89,380 L 90,379 L 90,376 L 91,375 L 91,372 L 92,371 L 92,368 Z" fill="currentColor" /><path d="M 22,342 L 21,343 L 10,343 L 10,344 L 9,345 L 10,346 L 10,424 L 20,424 L 21,425 L 22,424 L 23,425 L 25,425 L 26,424 L 26,396 L 27,395 L 40,395 L 41,394 L 45,394 L 46,393 L 48,393 L 49,392 L 50,392 L 51,391 L 52,391 L 55,388 L 56,388 L 57,387 L 57,386 L 59,384 L 59,383 L 61,381 L 62,382 L 61,381 L 61,379 L 62,378 L 64,380 L 64,381 L 64,380 L 63,379 L 64,378 L 64,376 L 64,378 L 63,379 L 62,378 L 62,375 L 63,374 L 63,365 L 64,364 L 64,358 L 63,358 L 62,359 L 61,358 L 61,357 L 60,356 L 60,355 L 59,354 L 59,353 L 56,350 L 56,349 L 55,349 L 52,346 L 51,346 L 50,345 L 48,345 L 47,344 L 48,343 L 47,343 L 46,344 L 45,344 L 44,343 L 23,343 Z M 26,358 L 27,357 L 39,357 L 40,358 L 41,358 L 42,359 L 43,359 L 44,360 L 44,361 L 43,362 L 44,363 L 44,365 L 44,363 L 45,362 L 46,363 L 46,367 L 47,368 L 46,369 L 46,374 L 44,376 L 44,377 L 43,378 L 42,378 L 41,379 L 40,379 L 39,380 L 32,380 L 31,381 L 27,381 L 26,380 Z" fill="currentColor" /><path d="M 421,341 L 422,342 L 421,343 L 419,343 L 418,344 L 417,344 L 416,345 L 415,345 L 413,347 L 412,347 L 407,352 L 406,351 L 407,352 L 406,353 L 406,354 L 405,355 L 405,356 L 404,357 L 404,358 L 402,360 L 402,362 L 401,363 L 401,365 L 400,366 L 400,369 L 399,370 L 399,377 L 398,378 L 398,392 L 399,393 L 399,399 L 400,400 L 400,403 L 401,404 L 401,406 L 402,407 L 402,408 L 403,409 L 403,410 L 404,411 L 404,412 L 408,416 L 408,417 L 410,419 L 411,419 L 413,421 L 414,421 L 415,422 L 416,422 L 417,423 L 418,423 L 419,424 L 421,424 L 422,425 L 421,426 L 417,426 L 418,426 L 421,429 L 420,428 L 421,427 L 421,426 L 422,425 L 437,425 L 438,424 L 441,424 L 442,423 L 443,423 L 444,422 L 445,422 L 447,420 L 448,420 L 451,417 L 452,417 L 452,416 L 453,415 L 454,415 L 454,414 L 456,412 L 456,411 L 457,410 L 457,409 L 458,408 L 458,407 L 459,406 L 459,405 L 460,404 L 460,401 L 461,400 L 461,397 L 462,396 L 462,387 L 463,386 L 463,382 L 462,381 L 462,380 L 463,379 L 464,380 L 464,379 L 463,379 L 462,378 L 462,369 L 461,368 L 461,365 L 460,364 L 460,362 L 459,361 L 459,359 L 457,357 L 457,356 L 456,355 L 456,354 L 454,352 L 454,351 L 450,347 L 449,347 L 447,345 L 446,345 L 445,344 L 444,344 L 443,343 L 442,343 L 441,342 L 437,342 L 436,341 L 426,341 L 425,342 L 422,342 Z M 426,357 L 427,356 L 435,356 L 436,357 L 437,357 L 438,358 L 439,358 L 443,362 L 443,363 L 444,364 L 444,365 L 445,366 L 445,368 L 446,369 L 446,374 L 447,375 L 447,392 L 446,393 L 446,397 L 445,398 L 445,400 L 444,401 L 444,402 L 442,404 L 442,405 L 439,408 L 438,407 L 439,408 L 438,409 L 437,409 L 436,410 L 433,410 L 432,411 L 429,411 L 428,410 L 425,410 L 424,409 L 423,409 L 420,406 L 421,405 L 420,406 L 417,403 L 417,402 L 416,401 L 416,399 L 415,398 L 415,393 L 414,392 L 414,376 L 415,375 L 415,370 L 416,369 L 416,367 L 417,366 L 417,365 L 418,364 L 418,363 L 420,361 L 421,362 L 422,361 L 424,363 L 424,362 L 423,362 L 422,361 L 423,360 L 424,360 L 423,360 L 422,359 L 424,357 Z" fill="currentColor" /><path d="M 303,340 L 304,340 L 305,341 L 304,342 L 301,342 L 300,343 L 298,343 L 297,344 L 296,344 L 294,346 L 293,346 L 288,351 L 288,352 L 287,353 L 287,354 L 286,355 L 286,356 L 285,357 L 285,359 L 284,360 L 284,370 L 285,371 L 285,374 L 286,375 L 286,376 L 287,377 L 287,378 L 292,383 L 291,384 L 292,383 L 293,383 L 295,385 L 296,385 L 297,386 L 298,386 L 299,387 L 300,387 L 301,388 L 299,390 L 298,389 L 297,389 L 298,389 L 299,390 L 300,389 L 301,390 L 303,390 L 304,389 L 305,389 L 306,390 L 307,390 L 308,391 L 309,391 L 310,392 L 311,392 L 313,394 L 314,394 L 315,395 L 314,396 L 315,397 L 316,396 L 317,397 L 317,399 L 318,400 L 318,403 L 317,404 L 317,406 L 314,409 L 313,409 L 312,408 L 311,408 L 312,408 L 313,409 L 312,410 L 309,410 L 308,411 L 307,410 L 306,411 L 305,410 L 300,410 L 299,409 L 298,409 L 297,408 L 296,408 L 295,407 L 294,407 L 293,406 L 293,405 L 294,404 L 293,404 L 292,405 L 291,404 L 291,399 L 290,399 L 290,401 L 291,402 L 290,403 L 289,403 L 284,408 L 284,409 L 280,413 L 280,414 L 286,420 L 284,422 L 286,420 L 287,420 L 288,421 L 289,421 L 290,422 L 291,422 L 292,423 L 293,423 L 294,424 L 296,424 L 297,425 L 314,425 L 315,424 L 318,424 L 319,423 L 320,423 L 321,422 L 322,422 L 323,421 L 324,421 L 326,419 L 327,419 L 327,418 L 328,417 L 329,417 L 329,416 L 331,414 L 331,413 L 332,412 L 332,411 L 333,410 L 333,408 L 334,407 L 335,408 L 335,409 L 336,408 L 334,406 L 334,395 L 333,394 L 333,392 L 332,391 L 332,390 L 331,389 L 331,388 L 330,387 L 331,386 L 330,387 L 329,386 L 329,385 L 330,384 L 329,385 L 327,383 L 326,383 L 324,381 L 325,380 L 324,379 L 325,378 L 323,376 L 321,376 L 325,380 L 324,381 L 323,381 L 321,379 L 320,379 L 319,378 L 318,378 L 317,377 L 316,377 L 315,376 L 314,376 L 313,375 L 311,375 L 310,374 L 309,374 L 308,373 L 307,373 L 302,368 L 303,367 L 302,368 L 301,367 L 301,361 L 302,360 L 303,361 L 303,363 L 303,361 L 302,360 L 305,357 L 306,357 L 307,356 L 315,356 L 316,357 L 318,357 L 320,359 L 321,359 L 322,360 L 321,361 L 322,360 L 323,361 L 323,362 L 322,363 L 321,363 L 321,364 L 322,364 L 324,362 L 325,363 L 325,364 L 326,363 L 327,363 L 328,364 L 327,363 L 334,356 L 334,355 L 336,353 L 330,347 L 331,346 L 330,345 L 329,346 L 328,346 L 327,345 L 328,344 L 327,343 L 327,342 L 325,344 L 324,344 L 323,343 L 322,343 L 321,342 L 317,342 L 316,341 L 305,341 L 304,340 Z" fill="currentColor" /><path d="M 228,340 L 228,341 L 227,342 L 225,342 L 224,343 L 223,342 L 222,343 L 220,343 L 220,424 L 221,425 L 221,427 L 220,428 L 222,430 L 221,429 L 222,428 L 221,427 L 222,426 L 224,426 L 226,424 L 227,424 L 229,426 L 230,426 L 231,427 L 231,426 L 232,425 L 233,425 L 234,424 L 235,424 L 235,382 L 234,381 L 235,380 L 236,380 L 237,381 L 237,382 L 238,383 L 237,384 L 237,385 L 238,384 L 239,385 L 239,386 L 240,387 L 240,388 L 241,389 L 241,390 L 242,391 L 242,392 L 243,393 L 243,395 L 244,396 L 244,397 L 245,398 L 245,399 L 246,400 L 246,401 L 245,402 L 244,401 L 245,402 L 245,403 L 246,404 L 246,405 L 247,406 L 248,405 L 249,406 L 249,407 L 250,408 L 250,409 L 251,410 L 251,412 L 252,413 L 252,414 L 253,415 L 253,416 L 251,418 L 253,416 L 254,417 L 254,418 L 255,419 L 255,420 L 256,421 L 256,422 L 257,423 L 257,424 L 258,425 L 257,426 L 258,425 L 264,425 L 265,424 L 267,424 L 268,425 L 269,424 L 270,425 L 271,425 L 272,426 L 271,425 L 272,424 L 273,424 L 273,343 L 258,343 L 258,344 L 257,345 L 258,346 L 258,388 L 257,389 L 256,388 L 256,387 L 255,386 L 255,385 L 254,384 L 254,383 L 253,382 L 253,380 L 252,379 L 252,378 L 251,377 L 251,376 L 250,375 L 250,374 L 249,373 L 249,371 L 247,369 L 247,368 L 246,367 L 246,365 L 245,364 L 245,363 L 244,362 L 244,361 L 243,360 L 243,359 L 242,358 L 242,357 L 241,356 L 241,355 L 240,354 L 240,352 L 239,351 L 239,350 L 238,349 L 238,348 L 237,347 L 237,346 L 236,345 L 236,344 L 234,342 L 233,342 L 232,343 L 231,342 L 231,341 L 230,342 Z" fill="currentColor" /><path d="M 345,107 L 344,108 L 342,108 L 340,110 L 340,111 L 339,112 L 339,113 L 338,114 L 338,116 L 337,117 L 337,118 L 336,119 L 336,121 L 335,122 L 335,124 L 334,125 L 334,126 L 333,127 L 333,129 L 332,130 L 332,132 L 331,133 L 331,134 L 330,135 L 330,137 L 329,138 L 329,139 L 328,140 L 328,142 L 327,143 L 327,144 L 326,145 L 325,144 L 326,145 L 326,147 L 325,148 L 325,149 L 324,150 L 324,151 L 323,152 L 323,154 L 322,155 L 322,156 L 321,157 L 321,158 L 320,159 L 320,160 L 319,161 L 319,162 L 318,163 L 318,164 L 317,165 L 317,166 L 316,167 L 316,168 L 315,169 L 315,170 L 314,171 L 314,172 L 313,173 L 313,174 L 312,175 L 312,176 L 310,178 L 310,179 L 309,180 L 309,181 L 308,182 L 308,183 L 307,184 L 307,185 L 306,186 L 305,186 L 307,186 L 308,187 L 311,187 L 312,188 L 311,189 L 310,189 L 311,189 L 312,188 L 313,189 L 312,188 L 313,187 L 338,187 L 339,188 L 338,189 L 337,189 L 338,189 L 339,188 L 341,190 L 341,193 L 340,194 L 340,195 L 336,199 L 336,200 L 332,204 L 332,205 L 327,210 L 326,209 L 326,207 L 325,208 L 324,207 L 323,208 L 322,207 L 321,207 L 321,210 L 322,209 L 324,211 L 325,210 L 326,211 L 326,212 L 322,216 L 322,217 L 318,221 L 317,220 L 318,221 L 318,222 L 313,227 L 313,228 L 309,232 L 308,231 L 309,232 L 308,233 L 308,234 L 304,238 L 304,239 L 302,241 L 301,240 L 299,242 L 300,243 L 300,244 L 295,249 L 294,248 L 295,249 L 295,250 L 292,253 L 292,254 L 288,258 L 288,259 L 283,264 L 283,265 L 279,269 L 277,267 L 277,266 L 277,267 L 276,268 L 275,268 L 276,268 L 277,269 L 278,268 L 279,269 L 279,270 L 275,274 L 275,275 L 272,278 L 272,279 L 269,282 L 267,280 L 267,279 L 267,280 L 268,281 L 267,282 L 268,283 L 268,284 L 265,287 L 264,287 L 263,286 L 263,287 L 264,288 L 263,289 L 263,290 L 262,291 L 261,290 L 261,289 L 261,291 L 260,292 L 261,291 L 262,292 L 263,292 L 264,293 L 263,294 L 261,294 L 263,294 L 264,293 L 271,293 L 272,292 L 273,293 L 391,293 L 392,292 L 393,293 L 394,293 L 395,292 L 396,292 L 396,261 L 395,260 L 395,259 L 394,258 L 392,258 L 391,257 L 385,257 L 382,254 L 382,252 L 381,251 L 382,250 L 382,248 L 383,247 L 383,245 L 384,244 L 384,242 L 385,241 L 385,233 L 382,230 L 382,229 L 380,227 L 379,227 L 371,219 L 370,219 L 369,218 L 369,217 L 365,213 L 365,212 L 367,210 L 366,211 L 365,210 L 365,209 L 365,210 L 364,211 L 363,210 L 363,209 L 362,208 L 362,207 L 361,206 L 361,205 L 360,204 L 360,203 L 359,202 L 359,200 L 358,199 L 358,198 L 357,197 L 357,195 L 356,194 L 356,192 L 355,191 L 355,190 L 354,189 L 354,187 L 353,186 L 353,184 L 352,183 L 352,181 L 351,180 L 351,178 L 350,177 L 350,175 L 351,174 L 352,175 L 352,176 L 352,175 L 351,174 L 350,175 L 349,174 L 349,172 L 348,171 L 348,169 L 347,168 L 347,166 L 346,165 L 346,162 L 345,161 L 345,159 L 344,158 L 344,155 L 343,154 L 343,151 L 342,150 L 342,136 L 345,133 L 353,133 L 354,134 L 353,133 L 354,132 L 357,132 L 358,131 L 359,131 L 361,129 L 361,128 L 362,127 L 362,113 L 361,112 L 361,111 L 360,110 L 360,109 L 359,109 L 358,108 L 355,108 L 354,107 Z" fill="currentColor" /><path d="M 292,12 L 291,13 L 287,13 L 286,14 L 283,14 L 282,15 L 281,15 L 280,16 L 278,16 L 277,15 L 277,14 L 276,15 L 275,15 L 274,16 L 275,16 L 276,17 L 275,18 L 274,18 L 273,19 L 272,19 L 270,21 L 269,21 L 267,23 L 266,23 L 258,31 L 257,30 L 257,29 L 257,30 L 256,31 L 257,32 L 257,33 L 254,36 L 254,37 L 252,39 L 252,40 L 251,41 L 251,42 L 250,43 L 250,44 L 249,45 L 249,46 L 248,47 L 248,49 L 247,50 L 247,52 L 246,53 L 246,57 L 245,58 L 245,74 L 246,75 L 246,77 L 245,78 L 244,77 L 244,76 L 244,77 L 245,78 L 246,78 L 247,79 L 247,81 L 248,82 L 248,84 L 249,85 L 249,86 L 250,87 L 250,88 L 251,89 L 251,90 L 250,91 L 249,90 L 250,91 L 249,92 L 251,90 L 252,91 L 252,92 L 253,93 L 252,94 L 253,93 L 255,95 L 255,96 L 262,103 L 262,104 L 263,105 L 264,105 L 265,106 L 264,107 L 260,107 L 259,106 L 258,107 L 245,107 L 244,108 L 242,108 L 239,111 L 239,117 L 238,118 L 238,124 L 239,125 L 239,130 L 240,131 L 240,132 L 241,132 L 243,134 L 245,134 L 246,135 L 256,135 L 257,136 L 258,135 L 260,135 L 261,136 L 261,142 L 260,143 L 260,147 L 259,148 L 259,152 L 258,153 L 258,157 L 257,158 L 257,161 L 256,162 L 256,164 L 255,165 L 255,167 L 254,168 L 254,171 L 253,172 L 253,174 L 252,175 L 252,177 L 251,178 L 251,180 L 250,181 L 250,182 L 249,183 L 249,185 L 248,186 L 248,188 L 247,189 L 247,190 L 246,191 L 246,193 L 245,194 L 245,195 L 244,196 L 244,198 L 242,200 L 242,201 L 241,202 L 241,204 L 240,205 L 240,206 L 239,207 L 239,208 L 237,210 L 236,209 L 237,210 L 237,211 L 235,213 L 235,214 L 233,216 L 232,215 L 233,216 L 231,218 L 231,219 L 218,232 L 218,233 L 217,234 L 217,243 L 218,244 L 218,247 L 219,248 L 219,254 L 217,256 L 215,256 L 214,255 L 213,255 L 214,255 L 215,256 L 214,257 L 211,257 L 210,258 L 209,258 L 208,259 L 207,259 L 207,260 L 206,261 L 206,292 L 205,293 L 204,293 L 205,293 L 206,294 L 205,293 L 206,292 L 208,292 L 209,293 L 210,292 L 211,292 L 212,293 L 214,293 L 215,292 L 216,292 L 217,293 L 222,293 L 223,292 L 224,293 L 233,293 L 234,292 L 235,292 L 236,293 L 238,293 L 239,292 L 240,292 L 241,293 L 247,293 L 248,292 L 251,292 L 251,291 L 252,290 L 252,289 L 253,288 L 253,287 L 254,286 L 255,287 L 254,286 L 254,285 L 255,284 L 255,283 L 256,282 L 256,281 L 257,280 L 258,281 L 259,280 L 258,281 L 257,280 L 257,279 L 258,278 L 258,276 L 259,275 L 259,274 L 260,273 L 260,272 L 261,271 L 261,270 L 262,269 L 262,268 L 263,267 L 263,266 L 264,265 L 264,264 L 265,263 L 265,262 L 266,261 L 266,260 L 267,259 L 267,257 L 268,256 L 268,255 L 269,254 L 269,253 L 270,252 L 270,251 L 271,250 L 271,249 L 272,248 L 272,247 L 273,246 L 273,245 L 274,244 L 274,243 L 275,242 L 275,240 L 277,238 L 277,236 L 278,235 L 278,234 L 279,233 L 279,232 L 280,231 L 280,230 L 281,229 L 281,228 L 282,227 L 282,226 L 283,225 L 283,223 L 285,221 L 285,219 L 286,218 L 286,217 L 287,216 L 287,215 L 286,215 L 285,214 L 259,214 L 258,213 L 256,213 L 255,212 L 255,208 L 256,207 L 256,206 L 257,205 L 258,206 L 257,205 L 257,204 L 258,203 L 258,202 L 261,199 L 261,198 L 263,196 L 263,195 L 265,193 L 265,192 L 268,189 L 268,188 L 271,185 L 271,184 L 275,180 L 277,182 L 277,181 L 278,180 L 277,180 L 276,181 L 275,180 L 275,179 L 277,177 L 278,178 L 279,177 L 279,176 L 278,175 L 282,171 L 282,170 L 286,166 L 286,165 L 290,161 L 290,160 L 294,156 L 294,155 L 297,152 L 298,153 L 297,152 L 300,149 L 300,148 L 302,146 L 304,148 L 302,146 L 303,145 L 303,144 L 307,140 L 307,139 L 313,133 L 313,132 L 316,129 L 316,128 L 319,125 L 320,126 L 321,126 L 320,126 L 319,125 L 321,123 L 322,124 L 321,123 L 321,122 L 324,119 L 325,120 L 324,119 L 326,117 L 326,116 L 330,112 L 330,111 L 331,110 L 332,110 L 332,109 L 335,106 L 336,107 L 335,106 L 336,105 L 336,104 L 337,103 L 338,103 L 339,104 L 338,103 L 338,102 L 341,99 L 341,98 L 345,94 L 345,93 L 347,91 L 347,90 L 349,88 L 349,86 L 350,85 L 350,84 L 351,83 L 351,82 L 352,81 L 352,79 L 353,78 L 353,74 L 354,73 L 354,56 L 353,55 L 353,51 L 352,50 L 352,47 L 351,46 L 351,45 L 352,44 L 351,45 L 350,44 L 350,43 L 349,42 L 349,41 L 348,40 L 348,38 L 346,36 L 346,35 L 347,34 L 346,35 L 343,32 L 343,31 L 337,25 L 338,24 L 337,25 L 336,24 L 335,24 L 332,21 L 331,21 L 329,19 L 328,19 L 327,18 L 326,18 L 325,17 L 324,17 L 323,16 L 324,15 L 323,16 L 322,16 L 321,15 L 319,15 L 318,14 L 315,14 L 314,13 L 310,13 L 309,12 Z" fill="currentColor" /></svg>